<svg width="25" height="25" viewBox="0 0 25 25" fill="none" xmlns="http://www.w3.org/2000/svg">
<path fill-rule="evenodd" clip-rule="evenodd" d="M3.48307 0.580833C2.68628 -0.193611 1.39443 -0.193611 0.597645 0.580833C-0.199142 1.35528 -0.199142 2.6109 0.597645 3.38534L9.97522 12.5L0.59759 21.6146C-0.199197 22.3891 -0.199197 23.6447 0.59759 24.4191C1.39438 25.1936 2.68622 25.1936 3.48301 24.4191L12.8606 15.3045L21.5169 23.718C22.3137 24.4925 23.6056 24.4925 24.4024 23.718C25.1992 22.9436 25.1992 21.688 24.4024 20.9135L15.7461 12.5L24.4023 4.08645C25.1991 3.312 25.1991 2.05638 24.4023 1.28194C23.6055 0.507494 22.3137 0.507494 21.5169 1.28194L12.8606 9.69545L3.48307 0.580833Z" fill="#CD3B31"/>
</svg>
