<svg width="33" height="24" viewBox="0 0 33 24" fill="none" xmlns="http://www.w3.org/2000/svg">
<path d="M0 2.06858C0 0.926144 0.926125 1.90735e-05 2.06856 1.90735e-05H30.9314C32.0739 1.90735e-05 33 0.926144 33 2.06858C33 3.21101 32.0739 4.13714 30.9314 4.13714H2.06856C0.926124 4.13714 0 3.21101 0 2.06858Z" fill="#CD3B31"/>
<path d="M14.9287 11.9977C14.9287 10.8553 15.8548 9.92914 16.9973 9.92914H30.9316C32.074 9.92914 33.0001 10.8553 33.0001 11.9977C33.0001 13.1401 32.074 14.0663 30.9316 14.0663H16.9973C15.8548 14.0663 14.9287 13.1401 14.9287 11.9977Z" fill="#CD3B31"/>
<path d="M33 21.9267C33 23.0692 32.0739 23.9953 30.9314 23.9953L2.06857 23.9953C0.92614 23.9953 1.53357e-05 23.0691 1.54305e-05 21.9267C1.55254e-05 20.7843 0.92614 19.8582 2.06857 19.8582L30.9314 19.8582C32.0739 19.8582 33 20.7843 33 21.9267Z" fill="#CD3B31"/>
</svg>
